<svg width="202" height="212" viewBox="0 0 202 212" fill="none" xmlns="http://www.w3.org/2000/svg">
<path d="M86.7779 91.6785C84.1211 93.694 82.3805 96.9005 82.3805 100.519C82.3805 106.611 87.3734 111.604 93.4656 111.604H103.589C114.124 111.604 122.644 120.17 122.644 130.66V145.73C122.644 147.929 120.858 149.715 118.659 149.715C116.46 149.715 114.674 147.929 114.674 145.73V130.66C114.674 124.567 109.681 119.575 103.589 119.575H93.4656C84.4418 119.575 76.8837 113.253 74.9141 104.779C59.8896 104.596 47.7051 92.3656 47.7051 77.2953C47.7051 62.225 59.8438 50.0405 74.8682 49.8115C78.5328 36.5277 90.7173 26.7251 105.192 26.7251C117.01 26.7251 127.637 33.3212 133.042 43.6735C134.142 43.536 135.241 43.4444 136.34 43.4444C150.449 43.4444 161.946 54.9418 161.946 69.0502C161.946 71.0199 161.626 72.9437 161.213 74.8218C166.893 79.2192 170.375 86.0901 170.375 93.4192C170.375 106.382 159.839 116.918 146.876 116.918C135.012 116.918 125.255 108.031 123.698 96.534L131.485 94.3353C131.989 102.443 138.631 108.902 146.876 108.902C155.121 108.902 162.358 101.939 162.358 93.4192C162.358 89.3424 160.709 85.4947 157.961 82.6547C157.32 83.6624 156.633 84.716 155.854 85.6321C155.075 86.5482 153.93 87.0521 152.831 87.0521C151.915 87.0521 150.998 86.7314 150.266 86.0902C148.571 84.6702 148.387 82.1508 149.807 80.456C151.136 78.8527 152.189 77.1121 152.922 75.1882C153.655 73.2186 154.022 71.1573 154.022 69.096C154.022 59.385 146.143 51.5063 136.432 51.5063C134.92 51.5063 133.409 51.6896 131.943 52.1018C129.79 52.6973 127.637 51.4147 127.042 49.2618C127.042 49.2618 126.996 49.216 126.996 49.1702C123.286 40.467 114.811 34.8328 105.329 34.8328C92.3663 34.8328 81.8308 45.3683 81.8308 58.3315C81.8308 59.6141 81.9224 60.8508 82.1057 62.0418C82.4263 64.2405 80.9605 66.256 78.7618 66.6224C78.5328 66.6224 78.3495 66.6683 78.1205 66.6683C76.1966 66.6683 74.5018 65.2483 74.1812 63.2786C73.9063 61.6296 73.7689 59.9805 73.7689 58.2857C73.7689 58.1941 73.7689 58.1025 73.7689 58.0108C63.7373 58.7896 55.767 67.1263 55.767 77.3869C55.767 87.6476 64.287 96.6256 74.8224 96.8546C75.7844 91.9992 78.5786 87.8308 82.4721 85.0366C82.4721 85.0366 83.3424 84.5785 84.3502 84.1205C84.9915 83.6166 85.2205 83.4334 85.4495 83.1127C86.274 81.9676 86.5031 80.456 85.8618 79.0818L84.8998 77.1121C84.396 76.1044 84.8998 74.9134 85.8618 74.4553C86.274 74.2721 86.6863 74.2263 87.0527 74.3179L89.6179 74.776L97.405 76.1502L103.222 77.1579L104.23 77.3411C104.871 77.4328 105.421 77.7992 105.696 78.3947C105.971 78.9444 105.925 79.5856 105.696 80.0895L105.604 80.2269L105.146 81.0973L102.26 86.2734L98.4127 93.1901L97.1301 95.4805C96.9469 95.8011 96.6263 96.1217 96.2598 96.305C95.2979 96.763 94.0611 96.305 93.6031 95.343L92.6411 93.3276C91.9998 91.9534 90.6714 91.2205 89.2514 91.1288C88.6102 91.1288 87.9689 91.1289 87.3734 91.4495L86.8237 91.7701L86.7779 91.6785Z" fill="#213E4A" stroke="#213E4A" stroke-width="8.46654" stroke-miterlimit="10"/>
<path d="M118.142 71.7933C118.142 73.992 119.928 75.7785 122.127 75.7785C124.325 75.7785 126.112 73.992 126.112 71.7933C126.112 61.5327 117.775 53.1501 107.469 53.1501C101.88 53.1501 96.6584 55.6237 93.0855 59.9295C91.6655 61.6243 91.9403 64.1437 93.6352 65.5637C95.33 66.9837 97.8493 66.7546 99.2693 65.014C101.285 62.5405 104.308 61.1205 107.469 61.1205C113.332 61.1205 118.096 65.8843 118.096 71.7475L118.142 71.7933Z" fill="#213E4A" stroke="#213E4A" stroke-width="8.46654" stroke-miterlimit="10"/>
<path d="M116.588 90.6718C115.214 89.1602 112.924 89.0686 111.412 90.4428C109.9 91.817 109.809 94.1073 111.183 95.6189C117.504 102.581 128.269 103.085 135.231 96.7641C138.987 93.3286 141.049 88.4273 140.774 83.3428C140.682 81.3273 138.987 79.7699 136.972 79.8615C134.956 79.9531 133.399 81.648 133.491 83.6634C133.628 86.595 132.483 89.3892 130.33 91.3131C126.345 94.9318 120.207 94.6112 116.588 90.6718Z" fill="#213E4A" stroke="#213E4A" stroke-width="8.46654" stroke-miterlimit="10"/>
<path d="M108.577 4.23315C59.7937 4.23315 20.1254 43.9015 20.1254 92.6852C20.1254 95.6169 20.2628 98.5943 20.5835 101.526L4.78025 141.332C4.00154 143.255 4.04735 145.5 4.96348 147.378C5.8338 149.302 7.48283 150.768 9.4525 151.455L26.126 157.181L30.386 189.062C31.5312 197.536 38.8144 203.949 47.3802 203.949H77.704C92.8659 203.949 105.234 191.627 105.234 176.419V174.495C105.234 172.297 103.447 170.51 101.248 170.51C99.0497 170.51 97.2633 172.297 97.2633 174.495V176.419C97.2633 187.184 88.5143 195.933 77.7498 195.933H47.426C42.8453 195.933 38.9518 192.497 38.3563 188.008L33.7757 153.699C33.5925 152.188 32.5389 150.951 31.1189 150.447L12.2925 144.263L28.4621 103.541C28.6912 102.946 28.7828 102.259 28.737 101.618C28.4163 98.6401 28.2331 95.6627 28.2331 92.6394C28.2331 48.2989 64.3285 12.2035 108.669 12.2035C153.01 12.2035 189.105 48.2989 189.105 92.6394C189.105 112.886 181.547 132.216 167.851 147.103C167.164 147.836 166.797 148.798 166.797 149.806V203.445C166.797 205.644 168.584 207.43 170.783 207.43C172.981 207.43 174.768 205.644 174.768 203.445V151.363C189.151 135.148 197.075 114.352 197.075 92.6394C196.984 43.9015 157.315 4.23315 108.577 4.23315Z" fill="#213E4A" stroke="#213E4A" stroke-width="8.46654" stroke-miterlimit="10"/>
</svg>
