<svg width="305" height="204" viewBox="0 0 305 204" fill="none" xmlns="http://www.w3.org/2000/svg">
<path d="M288.223 1.3738L288.085 1.19057C287.581 0.503472 286.803 0.0454074 285.887 0.0454074C284.879 0.0454074 284.1 0.549279 283.596 1.28218L282.726 2.47315L277.779 9.43574L271.183 18.6887L268.984 21.7577C268.618 22.2158 268.434 22.8112 268.434 23.4067C268.434 24.9641 269.671 26.2925 271.32 26.2925H274.481C276.68 26.2925 278.512 27.5293 279.474 29.3158C279.932 30.1403 280.207 31.0106 280.207 31.9725V61.8842C280.207 63.4416 281.489 64.7242 283.047 64.7242H288.681C290.238 64.7242 291.521 63.4416 291.521 61.8842V31.9725C291.521 31.0106 291.841 30.0945 292.254 29.3158C293.216 27.5293 295.048 26.2925 297.201 26.2925H300.407C301.965 26.2925 303.293 25.01 303.293 23.4067C303.293 22.7654 303.064 22.2158 302.743 21.7577L300.545 18.6887L293.949 9.43574L289.001 2.47315L288.177 1.32799L288.223 1.3738Z" fill="#1b1464"/>
<path d="M283.911 202.144L284.003 202.281C284.415 202.831 285.102 203.197 285.835 203.197C286.66 203.197 287.347 202.785 287.759 202.144L288.492 201.136L299.944 185.104C300.264 184.737 300.402 184.233 300.402 183.729C300.402 182.401 299.348 181.348 298.02 181.348H295.409C293.577 181.348 292.065 180.294 291.241 178.828C290.874 178.141 290.599 177.408 290.599 176.629V151.757C290.599 150.428 289.546 149.375 288.217 149.375H283.545C282.217 149.375 281.163 150.428 281.163 151.757V176.629C281.163 177.454 280.888 178.187 280.522 178.828C279.697 180.294 278.186 181.348 276.399 181.348H273.742C272.414 181.348 271.361 182.447 271.361 183.729C271.361 184.233 271.544 184.737 271.819 185.104L283.957 202.098L283.911 202.144Z" fill="#1b1464"/>
<path d="M301.855 98.8027H269.882C268.325 98.8027 267.042 100.085 267.042 101.643V107.277C267.042 108.834 268.325 110.117 269.882 110.117H301.855C303.413 110.117 304.695 108.834 304.695 107.277V101.643C304.695 100.085 303.413 98.8027 301.855 98.8027Z" fill="#1b1464"/>
<path d="M0 41.0426C0 19.1471 12.3678 0 31.9271 0C44.2949 0 55.1968 7.42065 55.1968 26.0639C55.1968 47.9136 42.8291 67.1065 23.1781 67.1065C10.8103 67.1065 0 59.5485 0 41.0426ZM24.8271 52.6775C35.271 52.6775 40.0807 39.8517 40.0807 27.8504C40.0807 20.1091 37.2865 14.4291 30.3239 14.4291C19.9258 14.4291 15.0703 27.2549 15.0703 39.0729C15.0703 46.9975 17.7729 52.6775 24.8271 52.6775Z" fill="#1b1464"/>
<path d="M58.4878 58.1736C58.4878 53.1349 62.473 49.0581 67.5117 49.0581C72.5504 49.0581 76.444 53.1349 76.444 58.1736C76.444 63.2123 72.5504 67.1058 67.5117 67.1058C62.473 67.1058 58.4878 63.1207 58.4878 58.1736Z" fill="#1b1464"/>
<path d="M133.113 19.8342C133.113 28.3084 128.166 35.8207 121.203 43.1955L97.6584 67.5646C97.1087 68.2975 96.2842 68.4807 95.5055 67.7478L87.8558 60.602C87.2145 59.8691 87.0313 59.3194 87.8558 58.4491L100.773 45.2568C91.0165 43.3788 84.4661 36.5078 84.4661 26.4762C84.5578 11.8181 97.6584 0 112.087 0C124.18 0 133.113 8.29098 133.113 19.8342ZM107.507 32.3852C113.004 32.3852 117.63 27.8045 117.63 22.0787C117.63 17.4981 114.561 14.3374 109.889 14.3374C104.3 14.3374 99.9487 19.0097 99.9487 24.6439C99.9487 29.1329 102.926 32.3852 107.507 32.3852Z" fill="#1b1464"/>
<path d="M186.159 19.8339C186.159 28.3081 181.212 35.8204 174.25 43.1953L150.705 67.5643C150.155 68.2972 149.331 68.4804 148.552 67.7475L140.902 60.6017C140.261 59.8688 140.078 59.3191 140.902 58.4488L153.82 45.2565C144.063 43.3785 137.513 36.5075 137.513 26.4759C137.513 11.8636 150.613 0.0455276 165.042 0.0455276C177.135 0.0455276 186.068 8.3365 186.068 19.8797L186.159 19.8339ZM160.553 32.3849C166.05 32.3849 170.677 27.8043 170.677 22.0785C170.677 17.4978 167.608 14.3372 162.935 14.3372C157.347 14.3372 152.995 19.0094 152.995 24.6436C152.995 29.1327 155.973 32.3849 160.553 32.3849Z" fill="#1b1464"/>
<path d="M186.397 56.6626C186.03 55.9297 186.397 55.0594 186.947 54.693L195.787 47.6388C196.428 47.0891 197.207 46.9975 197.848 47.822C200.001 50.7994 202.704 52.7691 206.506 52.7691C211.636 52.7691 215.072 49.3336 215.072 44.8446C215.072 42.142 213.972 38.7981 208.384 38.7981H205.773C204.582 38.7981 203.987 38.2484 204.078 37.1949L205.544 27.7129C205.636 26.7968 206.185 26.2929 207.239 26.2929H209.941C214.522 26.2929 217.179 23.1323 217.179 19.6968C217.179 16.2613 214.476 14.2916 211.132 14.2916C207.788 14.2916 205.086 16.3529 202.933 18.9639C202.108 19.9716 201.238 19.88 200.505 19.1471L194.55 12.4594C193.818 11.5432 193.726 10.7645 194.459 9.94001C198.719 4.44323 206.094 0 214.843 0C224.416 0 232.707 5.40517 232.707 15.3452C232.707 22.3994 228.722 28.5375 221.897 31.5149C226.478 33.5762 230.829 37.6529 230.829 45.3942C230.829 58.0368 218.919 67.0607 205.315 67.0607C195.283 67.0607 189.008 62.2968 186.351 56.6168L186.397 56.6626Z" fill="#1b1464"/>
<path d="M72.7409 116.897C72.7409 102.331 80.9861 89.5507 93.9951 89.5507C102.24 89.5507 109.478 94.4978 109.478 106.911C109.478 121.478 101.233 134.258 88.1319 134.258C79.8867 134.258 72.6951 129.219 72.6951 116.897H72.7409ZM89.277 124.639C96.2396 124.639 99.4461 116.073 99.4461 108.102C99.4461 102.972 97.568 99.1701 92.9415 99.1701C85.979 99.1701 82.7725 107.736 82.7725 115.615C82.7725 120.882 84.559 124.684 89.277 124.684V124.639Z" fill="#1b1464"/>
<path d="M111.715 128.302C111.715 124.958 114.372 122.21 117.716 122.21C121.06 122.21 123.671 124.958 123.671 128.302C123.671 131.646 121.06 134.257 117.716 134.257C114.372 134.257 111.715 131.6 111.715 128.302Z" fill="#1b1464"/>
<path d="M129.777 122.028C129.777 116.256 133.396 111.355 138.755 108.652C136.831 107.049 135.549 104.759 135.549 101.644C135.549 95.1849 141.32 89.5507 149.565 89.5507C156.574 89.5507 161.109 93.7649 161.109 99.2159C161.109 103.247 158.681 106.591 155.704 108.835C159.414 110.759 161.613 114.103 161.613 118.821C161.613 127.937 153.184 134.258 144.114 134.258C136.785 134.258 129.777 130.044 129.777 122.028ZM145.168 124.868C148.191 124.868 151.123 122.806 151.123 119.096C151.123 115.889 148.695 114.424 146.267 114.424C143.244 114.424 140.313 116.531 140.313 120.195C140.313 123.493 142.649 124.868 145.168 124.868ZM147.825 105.033C150.115 105.033 151.902 103.155 151.902 100.957C151.902 99.0785 150.665 97.7501 148.604 97.7501C146.359 97.7501 144.573 99.6282 144.573 101.827C144.573 103.705 145.764 105.033 147.779 105.033H147.825Z" fill="#1b1464"/>
<path d="M165.906 127.296C165.769 126.609 166.044 126.196 166.777 125.692L172.777 121.478C173.464 121.066 174.151 121.249 174.472 121.707C175.526 123.494 177.221 124.685 179.602 124.685C183.404 124.685 186.473 121.891 186.473 118.18C186.473 115.02 184.366 112.867 181.206 112.867C179.099 112.867 177.724 113.737 176.671 114.561C176.167 115.111 175.572 115.386 174.93 115.111L169.388 112.683C168.838 112.454 168.655 112.18 168.838 111.63L176.533 90.8795C176.717 90.3756 177.083 90.055 177.633 90.055H196.872C197.421 90.055 197.788 90.4672 197.742 91.0627L196.734 97.8879C196.688 98.4376 196.184 98.8956 195.635 98.8956H183.038L180.748 104.896C181.847 104.576 183.221 104.301 184.916 104.301C192.245 104.301 196.78 109.889 196.78 117.081C196.78 126.746 188.718 134.304 178.686 134.304C171.678 134.304 167.418 130.594 165.906 127.341V127.296Z" fill="#1b1464"/>
<path d="M199.901 121.022C199.901 115.387 203.199 110.349 207.825 105.447L223.491 89.1862C223.858 88.6823 224.407 88.5449 224.911 89.0488L229.996 93.8126C230.454 94.3165 230.545 94.683 229.996 95.2326L221.384 104.027C227.889 105.264 232.24 109.845 232.24 116.533C232.24 126.244 223.491 134.122 213.872 134.122C205.81 134.122 199.855 128.58 199.855 120.93L199.901 121.022ZM215.338 124.686C219.048 124.686 221.98 121.571 221.98 117.815C221.98 114.838 220.01 112.685 216.941 112.685C213.276 112.685 210.162 115.708 210.162 119.556C210.162 122.579 212.223 124.686 215.292 124.686H215.338Z" fill="#1b1464"/>
<path d="M139.519 178.645C139.519 169.529 144.695 161.559 152.803 161.559C157.979 161.559 162.514 164.674 162.514 172.415C162.514 181.53 157.338 189.501 149.184 189.501C144.008 189.501 139.519 186.34 139.519 178.645ZM149.871 183.5C154.223 183.5 156.238 178.141 156.238 173.148C156.238 169.941 155.093 167.559 152.162 167.559C147.81 167.559 145.795 172.919 145.795 177.82C145.795 181.118 146.94 183.5 149.871 183.5Z" fill="#1b1464"/>
<path d="M163.924 185.791C163.924 183.684 165.573 181.989 167.681 181.989C169.788 181.989 171.391 183.684 171.391 185.791C171.391 187.899 169.742 189.502 167.681 189.502C165.619 189.502 163.924 187.853 163.924 185.791Z" fill="#1b1464"/>
<path d="M174.695 185.192C174.603 184.78 174.786 184.505 175.244 184.185L179 181.528C179.413 181.253 179.871 181.391 180.054 181.665C180.695 182.811 181.749 183.543 183.26 183.543C185.642 183.543 187.566 181.803 187.566 179.467C187.566 177.497 186.238 176.123 184.268 176.123C182.94 176.123 182.115 176.672 181.428 177.176C181.107 177.543 180.741 177.68 180.329 177.543L176.893 176.031C176.527 175.894 176.435 175.711 176.527 175.39L181.337 162.381C181.474 162.06 181.703 161.877 182.024 161.877H194.071C194.437 161.877 194.666 162.152 194.62 162.518L193.979 166.778C193.979 167.145 193.613 167.42 193.292 167.42H185.413L183.993 171.176C184.68 170.992 185.551 170.809 186.604 170.809C191.185 170.809 194.025 174.291 194.025 178.78C194.025 184.826 188.986 189.544 182.711 189.544C178.313 189.544 175.657 187.208 174.74 185.192H174.695Z" fill="#1b1464"/>
<path d="M206.541 188.399L207.136 184.368H196.418C196.051 184.368 195.868 184.139 195.914 183.772L196.555 179.375C196.555 179.1 196.693 178.963 196.876 178.642L209.976 162.289C210.16 162.014 210.48 161.877 210.847 161.877H216.206C216.573 161.877 216.802 162.106 216.756 162.472L214.374 179.054H216.481C216.893 179.054 217.122 179.329 217.122 179.742L216.664 183.406C216.573 184.093 216.206 184.414 215.611 184.414H213.687L213.091 188.445C213.091 188.811 212.771 189.086 212.45 189.086H207.182C206.816 189.086 206.541 188.811 206.587 188.445L206.541 188.399ZM207.823 179.009L208.923 171.405L202.876 179.009H207.823Z" fill="#1b1464"/>
<path d="M223.848 188.403L226.78 167.377H222.153C221.787 167.377 221.512 167.103 221.558 166.736L222.199 162.476C222.199 162.11 222.565 161.835 222.932 161.835H233.422C233.788 161.835 234.017 162.11 233.971 162.476L230.307 188.403C230.307 188.769 229.986 189.044 229.665 189.044H224.398C224.031 189.044 223.756 188.769 223.802 188.403H223.848Z" fill="#1b1464"/>
<path d="M255.599 0.0454074H252.347V201.96H255.599V0.0454074Z" fill="#1b1464"/>
</svg>
