<?xml version="1.0" encoding="UTF-8"?>
<svg xmlns="http://www.w3.org/2000/svg" viewBox="218.13 0 42.12 43.45" role="img" aria-label="Priorify Y Stars AI favicon">
  <title>Priorify Y Stars AI</title>
  <path fill="#ffd506" d="M245.05,18.91c-.8-2.28-2.87-5.33-5.42-5.59-.18-.02-.36.08-.43.25l-2.62,5.07-8.9-17.39h-7.3l-1.01,1.6,12.94,24.87v14.48h8.55v-14.48l4.16-7.99c.12-.26.13-.55.04-.82ZM244.02,6.28c-.74.4-1.35,1.01-1.76,1.75-.06.12-.22.12-.29,0-.2-.37-.46-.71-.75-1-.3-.3-.63-.55-1-.75-.12-.06-.12-.22,0-.29.37-.2.71-.46,1-.75.3-.3.55-.63.75-1.01.06-.12.22-.12.29,0,.2.37.46.71.75,1.01.3.3.63.55,1.01.75.12.06.12.22,0,.29ZM251.3,10.41c-.75-.41-1.45-.9-2.09-1.45-.22-.19-.43-.38-.63-.59-.8-.8-1.49-1.72-2.03-2.72-.17-.31-.61-.31-.78,0-.55,1.01-1.23,1.92-2.04,2.72-.38.38-.78.73-1.21,1.06-.48.36-.98.69-1.51.98-.31.17-.31.61,0,.78.16.09.32.18.47.27.82.49,1.58,1.09,2.25,1.76.76.76,1.41,1.61,1.94,2.55.03.05.06.11.1.17.17.31.61.31.78,0,1.09-2.01,2.75-3.66,4.76-4.76.31-.17.31-.61,0-.78ZM253.06,4.22c-.6-.33-1.14-.73-1.62-1.21-.48-.48-.88-1.02-1.21-1.62-.1-.19-.36-.19-.47,0-.33.6-.73,1.14-1.21,1.62-.48.48-1.02.89-1.62,1.21-.19.1-.19.36,0,.47.6.33,1.14.73,1.62,1.21.48.48.89,1.02,1.21,1.62.1.19.36.19.47,0,.65-1.2,1.63-2.18,2.83-2.83.19-.1.19-.36,0-.47Z"/>
  <path fill="#ffd506" d="M252.55,41.51c0,.52-.42.82-.93.82s-.98-.29-.98-.82v-2.9h-4.65v2.9c0,.52-.42.82-.93.82s-.96-.29-.96-.82v-6.14c0-.91.23-1.6.9-2.27l2.18-2.15c.2-.18.55-.41,1.12-.41.5,0,.96.24,1.16.42l2.18,2.14c.7.67.9,1.35.9,2.27v6.14ZM250.66,36.86v-1.42c0-.47-.08-.78-.41-1.12-.64-.65-1.24-1.24-1.94-1.89-.65.64-1.27,1.26-1.88,1.89-.34.37-.44.65-.44,1.12v1.42h4.66Z"/>
  <path fill="#ffd506" d="M259.31,40.42c.54,0,.81.36.81.9s-.28.9-.81.9h-3.72c-.57,0-.83-.37-.83-.9s.26-.9.83-.9h.91v-7.86h-.91c-.57,0-.83-.36-.83-.9s.26-.9.83-.9h3.72c.54,0,.81.37.81.9s-.28.9-.81.9h-.9v7.86h.9Z"/>
</svg>
