<svg width="205" height="204" viewBox="0 0 205 204" fill="none" xmlns="http://www.w3.org/2000/svg">
<path d="M123.904 80.3896C118.617 75.1024 118.617 66.4506 123.904 61.1634C129.191 55.8762 137.843 55.8762 143.13 61.1634C148.417 66.4506 148.357 75.0423 143.13 80.3896C137.903 85.7369 129.251 85.7369 123.904 80.3896ZM117.715 90.7237V90.3632C117.956 89.0414 117.535 87.5994 116.514 86.578C115.372 85.4365 113.93 85.076 112.488 85.4365L110.145 85.857L96.6267 88.1402L78.6022 91.1442L72.6541 92.1656C71.7528 92.2858 70.8516 92.7064 70.1306 93.4274C68.3282 95.2298 68.2681 98.1137 70.1306 99.9763L73.6754 103.521C76.1388 105.984 76.7997 109.529 75.8985 112.654C75.4779 114.035 74.817 115.417 73.7355 116.499L8.7269 181.568C6.92444 183.37 6.92444 186.254 8.7269 188.056L15.0956 194.425C16.898 196.228 19.782 196.228 21.5844 194.425L86.7132 129.296C87.7947 128.155 89.1766 127.554 90.6185 127.133C93.7428 126.232 97.2276 126.833 99.6909 129.296L103.296 132.901C105.098 134.704 108.042 134.704 109.845 132.901C110.566 132.18 110.986 131.279 111.106 130.378L112.128 124.43L115.132 106.465L117.415 93.0068L117.776 90.7838L117.715 90.7237ZM59.8566 101.178V100.938C60.0369 100.096 59.7364 99.1351 59.0755 98.4742C58.3546 97.7533 57.3932 97.5129 56.4319 97.6932L54.9299 97.9335L46.1579 99.4355L34.442 101.418L30.5366 102.079C29.9358 102.139 29.3951 102.44 28.9144 102.92C27.7729 104.062 27.7128 105.984 28.9144 107.186L31.2576 109.529C32.8798 111.152 33.3004 113.435 32.6996 115.477C32.3992 116.379 32.0387 117.28 31.3177 118.001L0.856167 148.462C-0.285389 149.604 -0.285389 151.527 0.856167 152.668L5.00182 156.814C6.14338 157.955 8.066 157.955 9.20755 156.814L39.7292 126.292C40.4501 125.571 41.3514 125.151 42.2526 124.85C44.2954 124.249 46.5785 124.67 48.1406 126.292L50.4838 128.635C51.6254 129.777 53.548 129.777 54.7496 128.635C55.2303 128.155 55.4706 127.554 55.5908 127.013L56.2517 123.108L58.2344 111.392L59.7364 102.62L59.9768 101.178H59.8566ZM105.399 146.72V146.48C105.579 145.639 105.279 144.677 104.618 144.016C103.897 143.295 102.935 143.055 101.974 143.235L100.472 143.476L91.7 144.978L79.984 146.96L76.0787 147.621C75.4779 147.681 74.9372 147.982 74.4565 148.462C73.3149 149.604 73.2549 151.527 74.4565 152.728L76.7997 155.071C78.4219 156.694 78.8425 158.977 78.2417 161.02C77.9413 161.921 77.5808 162.822 76.8598 163.543L46.3382 194.065C45.1966 195.206 45.1966 197.129 46.3382 198.27L50.4838 202.416C51.6254 203.557 53.548 203.557 54.6896 202.416L85.2112 171.894C85.9322 171.173 86.8334 170.753 87.7346 170.452C89.7774 169.852 92.0605 170.272 93.6226 171.894L95.9658 174.238C97.1074 175.379 99.03 175.379 100.232 174.238C100.712 173.757 100.953 173.156 101.073 172.615L101.734 168.71L103.716 156.994L105.218 148.222L105.459 146.78L105.399 146.72ZM133.517 0C94.5239 0 62.7405 31.7232 62.7405 70.7765C62.7405 76.3641 63.4615 81.7715 64.7232 86.9986C66.8862 84.8957 69.65 83.5739 72.5339 83.2735L76.7997 82.5525C76.0186 78.7674 75.5981 74.802 75.5981 70.7765C75.5981 38.873 101.553 12.8575 133.517 12.8575C165.481 12.8575 191.436 38.8129 191.436 70.7765C191.436 102.74 165.481 128.695 133.517 128.695C129.492 128.695 125.586 128.275 121.801 127.494L121.02 132.3C120.539 135.064 119.218 137.648 117.355 139.57C122.582 140.832 127.989 141.493 133.577 141.493C172.57 141.493 204.354 109.77 204.354 70.7164C204.354 31.6632 172.57 0 133.517 0ZM173.712 70.7765C173.712 48.6063 155.687 30.5817 133.517 30.5817C111.347 30.5817 93.3222 48.6063 93.3222 70.7765C93.3222 73.8407 93.6827 76.7847 94.3436 79.6085L107.141 77.4456C106.6 75.2826 106.24 73.0596 106.24 70.7765C106.24 55.6959 118.497 43.4392 133.577 43.4392C148.658 43.4392 160.914 55.6959 160.914 70.7765C160.914 85.857 148.658 98.1138 133.577 98.1138C131.294 98.1138 129.071 97.7533 126.908 97.2125L124.745 110.01C127.569 110.671 130.513 111.031 133.517 111.031C155.687 111.031 173.712 93.0068 173.712 70.8366V70.7765Z" fill="#1b1464"/>
</svg>
