<svg width="165" height="204" viewBox="0 0 165 204" fill="none" xmlns="http://www.w3.org/2000/svg">
<mask id="mask0_2380_4350" style="mask-type:luminance" maskUnits="userSpaceOnUse" x="0" y="0" width="165" height="204">
<path d="M99.916 8.4668L100.64 8.47168C131.211 8.89659 155.758 33.7137 155.758 64.4346C155.758 95.3839 130.655 120.449 99.7441 120.449H69.2891C62.0487 120.449 56.1514 126.347 56.1514 133.587V194.639H36.585V62.2959C41.9654 61.6835 46.1562 57.1085 46.1562 51.5664C46.1562 49.6118 45.655 47.3381 44.165 45.2725L44.168 45.2715L32.4541 28.873C36.4247 26.0974 39.0126 21.4919 39.0127 16.2578C39.0127 13.4051 38.241 10.7454 36.9004 8.4668H99.916ZM69.335 28.0791C62.0946 28.0792 56.1973 33.9764 56.1973 41.2168V98.502H100.385C119.798 98.502 135.597 82.7675 135.597 63.29C135.597 43.8126 119.798 28.0791 100.385 28.0791H69.335Z" fill="white" stroke="white" stroke-width="16.9331"/>
</mask>
<g mask="url(#mask0_2380_4350)">
<path d="M176.877 6.90796V194.454H-10.6689V6.90796H176.877Z" fill="#1b1464" stroke="#1b1464" stroke-width="16.9331"/>
</g>
</svg>
