<svg width="254" height="204" viewBox="0 0 254 204" fill="none" xmlns="http://www.w3.org/2000/svg">
<path d="M27.3057 78.1025C28.5049 82.3725 31.4198 85.7806 35.0127 87.7812C35.804 88.242 36.7255 88.6952 37.7656 89.0635C36.9363 89.3487 36.1306 89.7021 35.3594 90.124L35.0947 90.2734C35.08 90.2817 35.0655 90.2905 35.0508 90.2988C35.0154 90.3192 34.9795 90.3387 34.9443 90.3594V90.3604C31.4446 92.372 28.5289 95.7426 27.3174 100.008L11.9619 89.0342L17.5273 85.0938L17.543 85.082L17.5586 85.0713L27.3057 78.1025ZM151.441 8.4668V13.8506L144.758 14.083L145.062 10.9678L147.815 8.4668H151.441Z" fill="#213E4A" stroke="#213E4A" stroke-width="16.9331"/>
</svg>
